<svg width="29" height="21" viewBox="0 0 29 21" fill="none" xmlns="http://www.w3.org/2000/svg">
<path d="M15.0868 0.498047H15.2426C16.6811 0.503297 23.9698 0.555797 25.9351 1.0843C26.5292 1.24559 27.0705 1.55999 27.5051 1.99606C27.9396 2.43214 28.2521 2.97462 28.4113 3.5693C28.5881 4.2343 28.7123 5.11455 28.7963 6.0228L28.8138 6.2048L28.8523 6.6598L28.8663 6.8418C28.9801 8.4413 28.9941 9.9393 28.9958 10.2665V10.3978C28.9941 10.7373 28.9783 12.3368 28.8523 14.0028L28.8383 14.1865L28.8226 14.3685C28.7351 15.3695 28.6056 16.3635 28.4113 17.095C28.2526 17.69 27.9403 18.2327 27.5057 18.6689C27.071 19.105 26.5294 19.4192 25.9351 19.58C23.9051 20.126 16.1893 20.1645 15.1201 20.1663H14.8716C14.3308 20.1663 12.0943 20.1558 9.74931 20.0753L9.45181 20.0648L9.29956 20.0578L9.00031 20.0455L8.70106 20.0333C6.75856 19.9475 4.90881 19.8093 4.05656 19.5783C3.46242 19.4176 2.92092 19.1037 2.48633 18.6678C2.05173 18.232 1.73929 17.6896 1.58031 17.095C1.38606 16.3653 1.25656 15.3695 1.16906 14.3685L1.15506 14.1848L1.14106 14.0028C1.05469 12.817 1.00683 11.6287 0.997559 10.4398L0.997559 10.2245C1.00106 9.8483 1.01506 8.54805 1.10956 7.11305L1.12181 6.9328L1.12706 6.8418L1.14106 6.6598L1.17956 6.2048L1.19706 6.0228C1.28106 5.11455 1.40531 4.23255 1.58206 3.5693C1.74077 2.97438 2.05309 2.43164 2.48771 1.99549C2.92232 1.55934 3.46396 1.24511 4.05831 1.0843C4.91056 0.856797 6.76031 0.716797 8.70281 0.629297L9.00031 0.617047L9.30131 0.606547L9.45181 0.601297L9.75106 0.589047C11.4165 0.535453 13.0827 0.505699 14.7491 0.499797H15.0868V0.498047ZM12.1976 6.11555V14.547L19.4723 10.333L12.1976 6.11555Z" fill="white"/>
</svg>
