<svg width="15" height="19" viewBox="0 0 15 19" fill="none" xmlns="http://www.w3.org/2000/svg">
<path d="M7.37561 19.0001C6.11266 17.9227 4.94201 16.7416 3.87591 15.4691C2.27605 13.5581 0.376222 10.7121 0.376222 8.00009C0.375528 6.61505 0.785694 5.26094 1.55481 4.10912C2.32393 2.9573 3.41743 2.05955 4.69691 1.52949C5.9764 0.999429 7.38436 0.860882 8.7426 1.13138C10.1009 1.40189 11.3483 2.06928 12.3272 3.04909C12.9789 3.69795 13.4954 4.46963 13.8469 5.31947C14.1984 6.1693 14.3779 7.08042 14.375 8.00009C14.375 10.7121 12.4752 13.5581 10.8753 15.4691C9.8092 16.7416 8.63855 17.9227 7.37561 19.0001ZM7.37561 5.00009C6.58003 5.00009 5.81703 5.31616 5.25447 5.87877C4.69191 6.44138 4.37587 7.20444 4.37587 8.00009C4.37587 8.79574 4.69191 9.5588 5.25447 10.1214C5.81703 10.684 6.58003 11.0001 7.37561 11.0001C8.17119 11.0001 8.93418 10.684 9.49674 10.1214C10.0593 9.5588 10.3753 8.79574 10.3753 8.00009C10.3753 7.20444 10.0593 6.44138 9.49674 5.87877C8.93418 5.31616 8.17119 5.00009 7.37561 5.00009Z" fill="#131111"/>
</svg>
