<svg width="20" height="20" viewBox="0 0 20 20" fill="none" xmlns="http://www.w3.org/2000/svg">
<path d="M13.2686 14.11L14.9484 12.43C15.1747 12.2066 15.4609 12.0536 15.7724 11.9897C16.0839 11.9258 16.4073 11.9537 16.7033 12.07L18.7506 12.8875C19.0496 13.0089 19.3061 13.2162 19.4876 13.4831C19.6691 13.75 19.7675 14.0647 19.7705 14.3875V18.1375C19.7687 18.3571 19.7226 18.5741 19.6348 18.7753C19.547 18.9766 19.4194 19.158 19.2596 19.3087C19.0999 19.4594 18.9113 19.5761 18.7053 19.652C18.4992 19.7278 18.2799 19.7612 18.0606 19.75C3.71439 18.8575 0.819646 6.70753 0.272194 2.05753C0.246781 1.82918 0.27 1.59804 0.340324 1.37931C0.410648 1.16058 0.526483 0.959225 0.680209 0.788483C0.833934 0.61774 1.02207 0.481484 1.23223 0.388679C1.44239 0.295873 1.66982 0.248621 1.89955 0.250031H5.52173C5.84496 0.250987 6.16051 0.348631 6.4278 0.530403C6.69509 0.712174 6.90189 0.96976 7.0216 1.27003L7.83903 3.31753C7.95921 3.61233 7.98987 3.93601 7.92718 4.24814C7.8645 4.56027 7.71124 4.847 7.48656 5.07253L5.80671 6.75253C5.80671 6.75253 6.77412 13.3 13.2686 14.11Z" fill="#131111"/>
</svg>
