<svg width="24" height="22" viewBox="0 0 24 22" fill="none" xmlns="http://www.w3.org/2000/svg">
<path d="M7.74379 0.5C7.08855 0.5 6.46015 0.776562 5.99683 1.26884C5.5335 1.76113 5.27321 2.42881 5.27321 3.125V4H3.62615C2.75249 4 1.91462 4.36875 1.29686 5.02513C0.679089 5.6815 0.332031 6.57174 0.332031 7.5V15.375C0.332031 16.0712 0.592325 16.7389 1.05565 17.2312C1.51897 17.7234 2.14738 18 2.80262 18H5.27321V18.875C5.27321 19.5712 5.5335 20.2389 5.99683 20.7312C6.46015 21.2234 7.08855 21.5 7.74379 21.5H16.1438C16.799 21.5 17.4274 21.2234 17.8908 20.7312C18.3541 20.2389 18.6144 19.5712 18.6144 18.875V18H20.9203C21.5755 18 22.2039 17.7234 22.6672 17.2312C23.1306 16.7389 23.3909 16.0712 23.3909 15.375V7.5C23.3909 6.57174 23.0438 5.6815 22.426 5.02513C21.8083 4.36875 20.9704 4 20.0967 4H18.4497V3.125C18.4497 2.42881 18.1894 1.76113 17.7261 1.26884C17.2627 0.776562 16.6343 0.5 15.9791 0.5H7.74379ZM16.8026 4H6.92027V3.125C6.92027 2.89294 7.00703 2.67038 7.16147 2.50628C7.31591 2.34219 7.52538 2.25 7.74379 2.25H15.9791C16.1975 2.25 16.407 2.34219 16.5614 2.50628C16.7159 2.67038 16.8026 2.89294 16.8026 3.125V4ZM7.74379 14.5H16.1438C16.3622 14.5 16.5717 14.5922 16.7261 14.7563C16.8806 14.9204 16.9673 15.1429 16.9673 15.375V18.875C16.9673 19.1071 16.8806 19.3296 16.7261 19.4937C16.5717 19.6578 16.3622 19.75 16.1438 19.75H7.74379C7.52538 19.75 7.31591 19.6578 7.16147 19.4937C7.00703 19.3296 6.92027 19.1071 6.92027 18.875V15.375C6.92027 15.1429 7.00703 14.9204 7.16147 14.7563C7.31591 14.5922 7.52538 14.5 7.74379 14.5Z" fill="white"/>
</svg>
