<svg width="17" height="14" viewBox="0 0 17 14" fill="none" xmlns="http://www.w3.org/2000/svg">
<path d="M12.6129 2.00033H15.8159C16.0283 2.00033 16.232 2.07056 16.3821 2.19559C16.5323 2.32061 16.6167 2.49018 16.6167 2.66699V13.3337C16.6167 13.5105 16.5323 13.68 16.3821 13.8051C16.232 13.9301 16.0283 14.0003 15.8159 14.0003H1.40232C1.18994 14.0003 0.986269 13.9301 0.836098 13.8051C0.685928 13.68 0.601563 13.5105 0.601562 13.3337V2.66699C0.601562 2.49018 0.685928 2.32061 0.836098 2.19559C0.986269 2.07056 1.18994 2.00033 1.40232 2.00033H4.60534V0.666992H6.20685V2.00033H11.0114V0.666992H12.6129V2.00033ZM15.0152 7.33366H2.20307V12.667H15.0152V7.33366ZM11.0114 3.33366H6.20685V4.66699H4.60534V3.33366H2.20307V6.00033H15.0152V3.33366H12.6129V4.66699H11.0114V3.33366ZM3.80458 8.66699H5.40609V10.0003H3.80458V8.66699ZM7.80836 8.66699H9.40987V10.0003H7.80836V8.66699ZM11.8121 8.66699H13.4136V10.0003H11.8121V8.66699Z" fill="#B3B3B3"/>
</svg>
