<svg width="14" height="14" viewBox="0 0 14 14" fill="none" xmlns="http://www.w3.org/2000/svg">
<path d="M10.3333 2.00033H12.9999C13.1767 2.00033 13.3463 2.07056 13.4713 2.19559C13.5963 2.32061 13.6666 2.49018 13.6666 2.66699V13.3337C13.6666 13.5105 13.5963 13.68 13.4713 13.8051C13.3463 13.9301 13.1767 14.0003 12.9999 14.0003H0.999919C0.823108 14.0003 0.653538 13.9301 0.528514 13.8051C0.40349 13.68 0.333252 13.5105 0.333252 13.3337V2.66699C0.333252 2.49018 0.40349 2.32061 0.528514 2.19559C0.653538 2.07056 0.823108 2.00033 0.999919 2.00033H3.66659V0.666992H4.99992V2.00033H8.99992V0.666992H10.3333V2.00033ZM12.3333 7.33366H1.66659V12.667H12.3333V7.33366ZM8.99992 3.33366H4.99992V4.66699H3.66659V3.33366H1.66659V6.00033H12.3333V3.33366H10.3333V4.66699H8.99992V3.33366ZM2.99992 8.66699H4.33325V10.0003H2.99992V8.66699ZM6.33325 8.66699H7.66659V10.0003H6.33325V8.66699ZM9.66659 8.66699H10.9999V10.0003H9.66659V8.66699Z" fill="white"/>
</svg>
