<svg width="88" height="88" viewBox="0 0 88 88" fill="none" xmlns="http://www.w3.org/2000/svg">
<path d="M77.5906 71.9065C82.0785 66.5068 85.1999 60.1057 86.6907 53.2445C88.1814 46.3834 87.9978 39.2642 86.1553 32.489C84.3127 25.7139 80.8655 19.4822 76.1052 14.3211C71.3449 9.15998 65.4115 5.22132 58.8071 2.83829C52.2026 0.455262 45.1214 -0.302035 38.1624 0.630464C31.2034 1.56296 24.5713 4.15783 18.8272 8.19555C13.0832 12.2333 8.39609 17.595 5.16248 23.8273C1.92887 30.0596 0.243867 36.979 0.250017 44.0002C0.252377 54.2071 3.84922 64.087 10.4094 71.9065L10.3469 71.9596C10.5656 72.2221 10.8156 72.4471 11.0406 72.7065C11.3219 73.0283 11.625 73.3315 11.9156 73.644C12.7906 74.594 13.6906 75.5065 14.6344 76.3627C14.9219 76.6252 15.2188 76.869 15.5094 77.119C16.5094 77.9815 17.5375 78.8002 18.6031 79.5627C18.7406 79.6565 18.8656 79.7783 19.0031 79.8752V79.8377C26.3222 84.9882 35.0535 87.7525 44.0031 87.7525C52.9528 87.7525 61.6841 84.9882 69.0031 79.8377V79.8752C69.1406 79.7783 69.2625 79.6565 69.4031 79.5627C70.4656 78.7971 71.4969 77.9815 72.4969 77.119C72.7875 76.869 73.0844 76.6221 73.3719 76.3627C74.3156 75.5033 75.2156 74.594 76.0906 73.644C76.3813 73.3315 76.6813 73.0283 76.9656 72.7065C77.1875 72.4471 77.4406 72.2221 77.6594 71.9565L77.5906 71.9065ZM44 19.0002C46.7813 19.0002 49.5002 19.825 51.8127 21.3702C54.1253 22.9154 55.9277 25.1116 56.9921 27.6812C58.0564 30.2508 58.3349 33.0783 57.7923 35.8062C57.2497 38.534 55.9104 41.0397 53.9437 43.0064C51.977 44.9731 49.4713 46.3124 46.7435 46.855C44.0156 47.3976 41.1881 47.1191 38.6185 46.0548C36.0489 44.9904 33.8527 43.188 32.3075 40.8754C30.7623 38.5629 29.9375 35.844 29.9375 33.0627C29.9375 29.3331 31.4191 25.7563 34.0563 23.119C36.6936 20.4818 40.2704 19.0002 44 19.0002ZM19.0219 71.9065C19.0761 67.8032 20.7436 63.8863 23.6636 61.0031C26.5837 58.12 30.5214 56.5023 34.625 56.5002H53.375C57.4786 56.5023 61.4164 58.12 64.3364 61.0031C67.2564 63.8863 68.9239 67.8032 68.9781 71.9065C62.1245 78.0825 53.2258 81.5005 44 81.5005C34.7742 81.5005 25.8755 78.0825 19.0219 71.9065Z" fill="#CECECE"/>
</svg>
