<svg width="20" height="26" viewBox="0 0 20 26" fill="none" xmlns="http://www.w3.org/2000/svg">
<path d="M18.75 0.75H4.09375C3.97344 0.75 3.875 0.848437 3.875 0.96875V2.5C3.875 2.62031 3.97344 2.71875 4.09375 2.71875H17.6562V21.5312C17.6562 21.6516 17.7547 21.75 17.875 21.75H19.4062C19.5266 21.75 19.625 21.6516 19.625 21.5312V1.625C19.625 1.14102 19.234 0.75 18.75 0.75ZM15.25 4.25H1.25C0.766016 4.25 0.375 4.64102 0.375 5.125V19.6363C0.375 19.8687 0.467969 20.0902 0.632031 20.2543L5.3707 24.993C5.43086 25.0531 5.49922 25.1023 5.57305 25.1434V25.1953H5.68789C5.78359 25.2309 5.88477 25.25 5.98867 25.25H15.25C15.734 25.25 16.125 24.859 16.125 24.375V5.125C16.125 4.64102 15.734 4.25 15.25 4.25ZM6.44531 23.5H6.43984L2.34375 19.4039V19.3984H6.44531V23.5Z" fill="white"/>
</svg>
