<svg width="27" height="22" viewBox="0 0 27 22" fill="none" xmlns="http://www.w3.org/2000/svg">
<path d="M26.5836 2.76C25.6094 3.19167 24.5629 3.48334 23.4628 3.61517C24.5979 2.93593 25.4472 1.86688 25.8521 0.607505C24.7856 1.24099 23.6183 1.6869 22.4011 1.92584C21.5825 1.05185 20.4983 0.472552 19.3168 0.277891C18.1353 0.08323 16.9225 0.284095 15.8669 0.849299C14.8112 1.4145 13.9717 2.31243 13.4786 3.40366C12.9855 4.49489 12.8666 5.71838 13.1401 6.88417C10.9791 6.77567 8.865 6.21398 6.93509 5.23556C5.00519 4.25714 3.30258 2.88386 1.93776 1.20484C1.47109 2.00984 1.20276 2.94317 1.20276 3.93717C1.20224 4.832 1.4226 5.71312 1.84429 6.50236C2.26597 7.2916 2.87595 7.96455 3.6201 8.4615C2.75708 8.43404 1.91311 8.20085 1.15843 7.78134V7.85134C1.15834 9.10637 1.59247 10.3228 2.38714 11.2942C3.18182 12.2656 4.2881 12.9321 5.51826 13.1807C4.71768 13.3973 3.87832 13.4293 3.0636 13.274C3.41068 14.3539 4.08676 15.2982 4.99719 15.9748C5.90762 16.6513 7.00683 17.0262 8.14093 17.047C6.21573 18.5583 3.83813 19.3781 1.3906 19.3745C0.95704 19.3746 0.523851 19.3493 0.0932617 19.2987C2.57765 20.896 5.46966 21.7438 8.42326 21.7405C18.4216 21.7405 23.8874 13.4595 23.8874 6.2775C23.8874 6.04417 23.8816 5.8085 23.8711 5.57517C24.9343 4.80631 25.852 3.85422 26.5813 2.7635L26.5836 2.76Z" fill="white"/>
</svg>
